<svg width="69" height="66" viewBox="0 0 69 66" fill="none" xmlns="http://www.w3.org/2000/svg">
<path d="M51.75 36.3H37.95V49.5H31.05V36.3H17.25V29.7H31.05V16.5H37.95V29.7H51.75M34.5 0C29.9694 0 25.4832 0.85357 21.2974 2.51198C17.1117 4.17038 13.3084 6.60114 10.1048 9.66548C3.63481 15.8542 0 24.2479 0 33C0 41.7521 3.63481 50.1458 10.1048 56.3345C13.3084 59.3989 17.1117 61.8296 21.2974 63.488C25.4832 65.1464 29.9694 66 34.5 66C43.65 66 52.4252 62.5232 58.8952 56.3345C65.3652 50.1458 69 41.7521 69 33C69 28.6664 68.1076 24.3752 66.3738 20.3714C64.6401 16.3677 62.0988 12.7298 58.8952 9.66548C55.6916 6.60114 51.8883 4.17038 47.7026 2.51198C43.5168 0.85357 39.0306 0 34.5 0Z" fill="black"/>
</svg>